<?xml version="1.0" standalone="no"?>
<!DOCTYPE svg PUBLIC "-//W3C//DTD SVG 20010904//EN"
 "http://www.w3.org/TR/2001/REC-SVG-20010904/DTD/svg10.dtd">
<svg version="1.0" xmlns="http://www.w3.org/2000/svg"
 width="500.000000pt" height="499.000000pt" viewBox="0 0 500.000000 499.000000"
 preserveAspectRatio="xMidYMid meet">

<g transform="translate(0.000000,499.000000) scale(0.100000,-0.100000)"
fill="#000000" stroke="none">
<path d="M1848 4754 c-86 -19 -218 -80 -288 -134 -246 -189 -251 -191 -451
-198 l-146 -4 -12 -33 c-13 -37 -48 -85 -61 -85 -5 0 -3 17 4 38 31 89 31 89
-24 117 -57 29 -80 31 -120 10 -44 -23 -60 -53 -60 -111 0 -50 2 -54 48 -93
41 -34 53 -52 71 -108 25 -76 82 -178 137 -244 111 -134 246 -207 492 -267
176 -43 203 -56 228 -103 19 -39 17 -51 -51 -209 -106 -249 -129 -354 -123
-539 5 -127 19 -192 92 -436 24 -79 56 -303 56 -388 0 -74 -26 -141 -69 -180
-39 -35 -54 -40 -154 -51 -102 -12 -180 -65 -223 -152 -20 -42 -25 -64 -21
-94 l5 -40 -323 0 c-273 0 -324 -2 -335 -15 -7 -8 -10 -22 -6 -30 5 -13 220
-15 1948 -13 l1943 3 0 25 0 25 -557 3 c-314 1 -558 6 -558 11 0 5 12 12 26
15 53 14 167 77 225 125 279 233 391 629 270 951 -51 136 -190 314 -284 365
-36 19 -37 19 -64 -1 -48 -36 -41 -52 57 -152 70 -71 99 -110 126 -165 80
-169 84 -374 10 -556 -25 -62 -96 -170 -133 -204 -20 -17 -20 -16 -26 90 -8
138 -35 245 -92 359 -67 136 -146 235 -380 474 -227 231 -319 334 -372 418
-49 76 -100 187 -108 231 l-6 39 -112 -1 c-87 0 -126 5 -176 21 -123 40 -206
117 -251 233 -32 79 -25 259 14 377 15 45 32 82 38 82 6 0 8 -11 4 -27 -23
-105 -28 -150 -24 -239 3 -89 7 -108 36 -167 61 -122 166 -188 315 -195 48 -3
116 1 150 8 129 25 268 124 318 227 28 57 37 171 20 248 -24 108 -163 307
-336 481 -112 112 -159 147 -276 205 -134 66 -269 84 -411 53z m915 -2109 c-6
-48 -2 -52 37 -30 36 20 53 19 45 -4 -3 -11 -7 -37 -9 -58 -3 -31 -8 -37 -23
-35 -10 2 5 -11 32 -30 57 -38 90 -92 100 -169 6 -40 12 -53 31 -61 33 -15 30
-46 -6 -82 -17 -16 -30 -33 -30 -37 0 -4 -15 -17 -34 -28 -24 -16 -50 -21 -97
-21 -35 0 -75 -6 -88 -13 -46 -23 -47 -38 -18 -154 33 -133 34 -178 2 -337
-14 -69 -25 -128 -25 -131 0 -3 -29 -5 -64 -5 l-64 0 -6 44 c-15 99 -106 167
-220 165 l-61 -2 61 -7 c108 -12 183 -73 199 -162 l7 -38 -321 0 -321 0 20 52
c41 108 128 208 373 432 71 63 94 92 123 152 33 65 37 85 44 181 6 87 12 118
33 158 39 77 82 130 144 181 45 36 123 82 140 84 2 0 0 -20 -4 -45z m-706
-412 c48 -22 89 -83 103 -149 17 -81 -5 -154 -66 -218 -29 -31 -133 -100 -202
-135 -74 -37 -120 -87 -138 -147 -8 -30 -13 -62 -10 -71 2 -10 7 -28 11 -40 6
-21 3 -23 -34 -23 -40 0 -40 0 -47 45 -8 55 1 115 22 159 29 56 77 96 188 159
60 33 125 74 144 91 111 97 64 276 -71 276 -31 0 -46 -7 -73 -34 -58 -58 -39
-129 46 -168 54 -25 71 -51 47 -75 -38 -39 -173 51 -197 132 -43 145 129 268
277 198z"/>
<path d="M4567 1410 c-45 -14 -114 -76 -127 -115 -22 -66 33 -180 103 -214 79
-38 157 -23 214 42 117 134 -19 338 -190 287z m90 -81 c34 -13 43 -26 43 -61
0 -19 -8 -33 -25 -44 l-26 -17 21 -22 c23 -24 26 -45 8 -45 -12 0 -74 78 -67
84 2 1 16 7 32 14 47 20 30 72 -25 72 l-28 0 0 -86 c0 -64 -3 -85 -12 -82 -13
5 -24 157 -14 185 6 16 54 17 93 2z"/>
<path d="M613 1156 c-35 -17 -61 -38 -80 -67 l-28 -42 -5 -254 -5 -253 48 0
47 0 0 121 0 121 28 -6 c95 -23 122 -26 166 -21 141 18 214 101 204 235 -3 46
-11 70 -34 102 -44 62 -91 82 -199 86 -79 2 -97 0 -142 -22z m218 -42 c65 -33
88 -152 47 -234 -28 -54 -64 -74 -133 -73 -71 0 -112 25 -137 80 -35 80 -13
183 48 223 37 25 132 27 175 4z"/>
<path d="M1062 938 c4 -265 8 -287 64 -340 50 -47 98 -60 237 -66 l127 -5 0
26 0 25 -118 3 c-131 4 -157 14 -193 72 -16 27 -19 47 -17 122 l3 90 118 -2
c109 -1 117 0 117 17 0 18 -10 20 -117 22 l-118 3 -3 93 c-3 87 -1 94 22 117
24 24 29 25 171 25 138 0 145 1 145 20 0 19 -7 20 -221 20 l-221 0 4 -242z"/>
<path d="M1530 1150 l0 -30 110 0 110 0 0 -290 0 -290 50 0 50 0 0 290 0 290
103 0 c57 0 106 2 109 5 3 3 3 17 0 30 l-4 25 -264 0 -264 0 0 -30z"/>
<path d="M2535 1171 c-82 -20 -118 -62 -123 -145 -4 -59 -2 -65 28 -100 38
-42 76 -64 172 -95 79 -26 115 -52 134 -97 21 -51 17 -82 -15 -115 -27 -26
-36 -29 -99 -29 -76 0 -154 19 -183 46 -17 15 -19 15 -25 1 -3 -9 -4 -26 -2
-39 2 -19 14 -26 68 -40 90 -23 214 -23 266 1 109 49 135 188 52 268 -18 18
-80 53 -138 78 -118 52 -170 94 -170 137 0 37 41 75 88 84 43 8 141 -10 196
-37 54 -26 58 -25 54 19 -3 37 -4 37 -68 54 -67 17 -182 21 -235 9z"/>
<path d="M2920 860 l0 -320 50 0 50 0 0 140 0 140 100 0 100 0 0 -140 0 -140
50 0 50 0 0 320 0 320 -50 0 -50 0 0 -160 0 -160 -100 0 -100 0 0 160 0 160
-50 0 -50 0 0 -320z"/>
<path d="M3535 1165 c-51 -18 -110 -81 -124 -131 -14 -50 -14 -297 0 -347 15
-54 71 -112 126 -131 26 -9 78 -16 117 -16 119 0 211 58 236 148 13 48 13 296
-1 345 -14 52 -84 122 -134 136 -55 15 -172 13 -220 -4z m203 -55 c54 -33 62
-68 62 -255 0 -180 -6 -204 -56 -244 -21 -16 -41 -21 -88 -21 -73 0 -103 14
-133 59 -22 32 -23 43 -23 208 0 194 6 219 63 253 44 27 131 27 175 0z"/>
<path d="M4118 1171 c-54 -18 -95 -51 -121 -100 l-27 -49 0 -241 0 -241 51 0
50 0 -3 121 -3 120 25 -6 c120 -29 177 -29 249 1 148 62 168 275 33 368 -38
27 -51 30 -135 33 -50 1 -104 -2 -119 -6z m193 -64 c81 -54 79 -220 -3 -280
-35 -26 -129 -28 -175 -3 -45 23 -62 62 -64 143 -2 78 6 99 52 137 42 36 139
37 190 3z"/>
<path d="M821 324 c-1 -62 3 -85 14 -94 22 -18 31 -5 11 15 -21 21 -21 84 -1
91 14 6 14 8 1 18 -8 6 -16 20 -19 31 -3 11 -5 -17 -6 -61z"/>
<path d="M888 394 c-11 -11 -10 -164 1 -164 6 0 11 21 13 46 6 88 70 88 76 0
4 -55 22 -62 22 -8 0 55 -24 85 -66 80 -30 -4 -33 -1 -36 25 -2 16 -6 25 -10
21z"/>
<path d="M1730 310 c0 -58 4 -89 10 -85 6 3 10 25 10 49 0 45 13 66 41 66 23
0 29 -11 39 -68 l8 -47 1 46 c1 60 -16 83 -57 77 -28 -4 -32 -2 -32 18 0 13
-4 26 -10 29 -6 4 -10 -27 -10 -85z"/>
<path d="M1176 339 c-35 -28 -35 -70 0 -98 15 -12 35 -21 44 -21 20 0 72 39
53 40 -6 0 -15 -4 -18 -10 -13 -20 -64 -11 -81 15 -15 23 -15 27 1 51 17 26
38 29 90 10 17 -7 17 -5 -4 13 -29 26 -51 26 -85 0z"/>
<path d="M1605 335 c-14 -13 -25 -35 -25 -49 0 -27 41 -66 70 -66 20 0 72 39
53 40 -6 0 -15 -4 -18 -10 -9 -14 -58 -13 -73 2 -7 7 -12 24 -12 38 0 14 5 31
12 38 15 15 64 16 73 2 3 -5 12 -10 18 -10 20 1 -34 40 -55 40 -10 0 -30 -11
-43 -25z"/>
<path d="M2246 339 c-17 -13 -26 -30 -26 -49 0 -31 39 -70 70 -70 20 0 72 39
53 40 -6 0 -15 -4 -18 -10 -9 -14 -58 -13 -73 2 -22 22 -13 28 43 28 46 0 55
3 55 18 0 23 -10 37 -37 51 -30 15 -36 14 -67 -10z m72 -11 c21 -21 13 -28
-33 -28 -25 0 -45 4 -45 8 0 15 24 32 45 32 12 0 26 -5 33 -12z"/>
<path d="M2545 335 c-14 -13 -25 -33 -25 -45 0 -26 43 -70 68 -70 20 0 75 39
57 40 -6 0 -16 -5 -22 -11 -15 -15 -64 -7 -77 13 -17 29 4 72 38 76 16 2 33
-1 39 -7 6 -6 16 -11 22 -11 18 1 -37 40 -57 40 -10 0 -30 -11 -43 -25z"/>
<path d="M2995 335 c-14 -13 -25 -33 -25 -45 0 -26 43 -70 68 -70 20 0 75 39
57 40 -6 0 -16 -5 -22 -11 -15 -15 -64 -7 -76 12 -5 9 -7 28 -3 42 7 31 49 46
77 28 30 -18 36 -12 10 9 -31 27 -57 25 -86 -5z"/>
<path d="M3487 340 c-68 -54 7 -153 79 -105 14 9 23 19 20 23 -4 3 -12 0 -18
-6 -21 -21 -66 -14 -84 13 -15 23 -15 27 1 51 17 27 40 29 90 9 18 -7 18 -6 5
8 -26 28 -63 30 -93 7z"/>
<path d="M1022 304 c-2 -38 3 -55 16 -67 45 -41 92 -7 92 66 0 64 -18 60 -22
-5 -3 -49 -5 -53 -29 -56 -34 -4 -47 13 -52 68 l-4 45 -1 -51z"/>
<path d="M1324 342 c-60 -40 -15 -136 54 -116 15 4 33 6 40 5 18 -3 15 70 -4
97 -15 22 -66 30 -90 14z m71 -18 c19 -20 16 -63 -6 -77 -23 -14 -67 0 -74 24
-8 26 19 69 45 69 10 0 26 -7 35 -16z"/>
<path d="M1462 338 c-7 -7 -11 -35 -11 -62 l1 -51 9 49 c7 46 21 66 44 66 24
0 39 -22 46 -67 l6 -48 2 51 c1 58 -11 74 -54 74 -17 0 -36 -5 -43 -12z"/>
<path d="M1876 328 c-23 -33 -19 -64 10 -87 33 -26 58 -27 84 -1 25 25 26 72
2 93 -27 25 -78 22 -96 -5z m93 -20 c14 -24 14 -28 -3 -47 -35 -39 -86 -21
-86 29 0 55 62 68 89 18z"/>
<path d="M2020 330 c-13 -24 -13 -100 -1 -100 6 0 11 21 13 46 6 91 68 84 68
-8 0 -31 4 -47 10 -43 6 4 10 26 9 49 -3 49 5 66 31 66 22 0 30 -19 30 -71 0
-21 5 -39 10 -39 13 0 13 76 0 100 -8 15 -22 18 -85 18 -63 0 -77 -3 -85 -18z"/>
<path d="M2386 328 c-23 -33 -19 -64 10 -87 33 -26 58 -27 84 -1 25 25 26 72
2 93 -27 25 -78 22 -96 -5z m88 -10 c20 -28 20 -43 0 -62 -22 -23 -60 -20 -78
6 -20 29 -20 34 4 58 26 26 55 25 74 -2z"/>
<path d="M2687 332 c-39 -43 -2 -121 51 -107 15 3 35 6 45 6 22 0 24 65 1 97
-19 28 -74 30 -97 4z m81 -4 c7 -7 12 -24 12 -38 0 -31 -17 -50 -45 -50 -28 0
-45 19 -45 50 0 31 17 50 45 50 12 0 26 -5 33 -12z"/>
<path d="M2836 328 c-23 -33 -19 -64 10 -87 33 -26 58 -27 84 -1 25 25 26 72
2 93 -27 25 -78 22 -96 -5z m90 -13 c20 -31 10 -63 -23 -71 -35 -9 -57 7 -61
42 -7 52 55 74 84 29z"/>
<path d="M3137 332 c-39 -43 -2 -121 51 -107 15 3 35 6 45 6 22 0 24 65 1 97
-19 28 -74 30 -97 4z m74 -2 c22 -12 26 -59 7 -78 -30 -30 -95 7 -81 47 15 41
37 50 74 31z"/>
<path d="M3286 328 c-18 -25 -23 -148 -6 -148 6 0 10 14 10 30 0 27 2 30 19
20 29 -15 49 -12 71 10 25 25 26 72 2 93 -27 25 -78 22 -96 -5z m93 -20 c14
-24 14 -28 -3 -47 -35 -39 -86 -21 -86 29 0 55 62 68 89 18z"/>
<path d="M3620 330 c-27 -27 -25 -56 5 -85 26 -27 46 -31 76 -14 41 21 44 86
5 111 -21 14 -66 8 -86 -12z m85 -10 c27 -29 10 -74 -28 -78 -52 -6 -76 41
-40 80 21 24 45 23 68 -2z"/>
<path d="M3771 337 c-6 -6 -10 -36 -10 -66 l2 -56 6 52 c8 62 23 83 49 67 11
-7 18 -27 20 -58 2 -25 7 -46 12 -46 5 0 10 21 12 46 2 31 9 51 20 58 25 15
41 -4 49 -62 l6 -47 2 51 c0 31 -4 56 -11 62 -18 14 -143 13 -157 -1z"/>
<path d="M3420 235 c0 -8 5 -15 10 -15 6 0 10 7 10 15 0 8 -4 15 -10 15 -5 0
-10 -7 -10 -15z"/>
</g>
</svg>
